<?xml version="1.0" encoding="UTF-8"?>
<svg id="_レイヤー_2" data-name="レイヤー 2" xmlns="http://www.w3.org/2000/svg" xmlns:xlink="http://www.w3.org/1999/xlink" viewBox="0 0 288.3500539 92.2499883">
  <defs>
    <style>
      .cls-1 {
        fill: url(#_名称未設定グラデーション_79);
      }

      .cls-2 {
        fill: url(#_名称未設定グラデーション_79-6);
      }

      .cls-3 {
        fill: url(#_名称未設定グラデーション_79-2);
      }

      .cls-4 {
        fill: url(#_名称未設定グラデーション_79-4);
      }

      .cls-5 {
        fill: url(#_名称未設定グラデーション_79-3);
      }

      .cls-6 {
        fill: #231815;
      }

      .cls-7 {
        fill: url(#_名称未設定グラデーション_79-5);
      }

      .cls-8 {
        fill: url(#_名称未設定グラデーション_79-7);
      }
    </style>
    <radialGradient id="_名称未設定グラデーション_79" data-name="名称未設定グラデーション 79" cx="61.0825104" cy="68.6215747" fx="61.0825104" fy="68.6215747" r="67.3568867" gradientUnits="userSpaceOnUse">
      <stop offset="0" stop-color="#b9833e"/>
      <stop offset=".316964" stop-color="#6a3906"/>
      <stop offset=".995536" stop-color="#2d0f09"/>
    </radialGradient>
    <radialGradient id="_名称未設定グラデーション_79-2" data-name="名称未設定グラデーション 79" cx="61.0825104" fx="61.0825104" r="67.3568867" xlink:href="#_名称未設定グラデーション_79"/>
    <radialGradient id="_名称未設定グラデーション_79-3" data-name="名称未設定グラデーション 79" cx="61.0825104" fx="61.0825104" r="67.3568867" xlink:href="#_名称未設定グラデーション_79"/>
    <radialGradient id="_名称未設定グラデーション_79-4" data-name="名称未設定グラデーション 79" cx="61.0825104" cy="68.6215747" fx="61.0825104" fy="68.6215747" r="67.3568867" xlink:href="#_名称未設定グラデーション_79"/>
    <radialGradient id="_名称未設定グラデーション_79-5" data-name="名称未設定グラデーション 79" cx="61.0825104" cy="68.6215747" fx="61.0825104" fy="68.6215747" r="67.3568867" xlink:href="#_名称未設定グラデーション_79"/>
    <radialGradient id="_名称未設定グラデーション_79-6" data-name="名称未設定グラデーション 79" cx="61.0825104" cy="68.6215747" fx="61.0825104" fy="68.6215747" r="67.3568867" xlink:href="#_名称未設定グラデーション_79"/>
    <radialGradient id="_名称未設定グラデーション_79-7" data-name="名称未設定グラデーション 79" cx="61.0825104" cy="68.6215747" fx="61.0825104" fy="68.6215747" r="67.3568867" xlink:href="#_名称未設定グラデーション_79"/>
  </defs>
  <g id="_レイヤー_1-2" data-name="レイヤー 1">
    <g>
      <path class="cls-6" d="m45.7227137,91.8266484c1.3566895-1.7800293,2.0352783-4.4501953,2.0352783-8.010498v-5.421875c1.1070557.0219727,1.6606445.1574707,1.6606445.4069824,0,.1413574-.2116699.2988281-.6348877.472168v4.4938965c0,3.8642578-.9064941,6.6374512-2.7191162,8.3198242l-.3419189-.260498Zm6.8546143-1.7258301v-10.8110352c1.0853271.0327148,1.6281738.1738281,1.6281738.4233398,0,.1303711-.2172852.2824707-.6512451.4558105v9.9318848h-.9769287Zm5.0473633,1.5629883v-13.5300293c1.1396484.043457,1.7095947.1953125,1.7095947.4560547,0,.1520996-.2442627.3039551-.7327881.4558105v12.6181641h-.9768066Z"/>
      <path class="cls-6" d="m66.4168055,89.6286504c1.2155762.7272949,3.3483887,1.0908203,6.3986816,1.0908203,1.0637207,0,2.5018311-.0541992,4.3146973-.1625977-.2498779.3039551-.4505615.6618652-.602417,1.0744629h-3.7611084c-3.1695557,0-5.4217529-.4396973-6.756958-1.3188477-.8359375-.5534668-1.4545898-1.4328613-1.8560791-2.6376953-.260498,1.6608887-.8140869,3.1208496-1.6607666,4.3798828l-.3419189-.2116699c.8358154-1.769043,1.2644043-4.1245117,1.2862549-7.0661621.9876709.0869141,1.4816895.2441406,1.4816895.472168,0,.1086426-.1954346.2224121-.5861816.3417969-.0218506.4995117-.043457.8791504-.0650635,1.1396484.2495117.8686523.6728516,1.6013184,1.2698975,2.1982422v-5.2753906h-2.8492432l-.1464844-.4233398h2.9957275v-2.409668h-2.3608398l-.1627197-.4069824h2.5235596v-2.7353516c1.0095215.0217285,1.5142822.1411133,1.5142822.3581543,0,.1303711-.2116699.2768555-.6350098.4396973v1.9375h.9931641l.6676025-.9931641c.3363037.3254395.6348877.6838379.8955078,1.0744629l-.1954346.3256836h-2.3608398v2.409668h1.2862549l.7000732-1.0256348c.3907471.3798828.6945801.7487793.9118652,1.1071777l-.1954346.3417969h-2.7027588v2.4260254h.8955078l.7164307-.9931641c.3037109.3256836.607666.6838379.9117432,1.0744629l-.1790771.3093262h-2.3446045v3.1586914Zm7.4406738-4.5263672c.4666748-.9006348.8630371-1.9428711,1.1885986-3.1259766.8466797.3366699,1.2700195.597168,1.2700195.7814941,0,.1411133-.2116699.2280273-.6350098.260498-.3256836.9443359-.8033447,1.9431152-1.4327393,2.9958496.2821045.6838379.6240234,1.3188477,1.0256348,1.9050293.1303711.173584.2280273.260498.2930908.260498.1954346,0,.4396973-.7270508.732666-2.1818848l.4071045.2443848c-.1846924,1.1179199-.2768555,1.8398438-.2768555,2.1652832,0,.3256836.1030273.5646973.3094482.7165527-.1196289.3691406-.3312988.5534668-.6350098.5534668-.7490234,0-1.5413818-.9223633-2.3771973-2.7678223-.8685303,1.2373047-1.9431152,2.2687988-3.2237549,3.0935059l-.2441406-.3093262c1.1722412-.9875488,2.197998-2.1923828,3.0771484-3.614502-.5860596-1.5085449-.9499512-3.1694336-1.0908203-4.9821777h-1.8236084v5.8937988l.0814209-.0488281c.7164307-.3037109,1.3620605-.6350098,1.9375-.9931641l.130249.3908691c-1.204834.8901367-2.366333,1.595459-3.4842529,2.1166992-.0325928.4230957-.1138916.6347656-.2441406.6347656-.1954346,0-.4559326-.4069824-.7816162-1.2209473.8792725-.3037109,1.378418-.472168,1.4979248-.5048828v-7.1313477c.1518555.0544434.5155029.2062988,1.0909424.4558105h1.5467529c-.0651855-.8356934-.1032715-1.8886719-.1140137-3.1584473.9659424.0324707,1.4490967.1628418,1.4490967.390625,0,.1303711-.1846924.2714844-.5535889.4233398.0216064,1.1291504.0488281,1.8886719.0814209,2.279541h2.4259033l.5699463-.8466797c.2930908.2929688.564209.6022949.8140869.9279785l-.1790771.342041h-3.5982666c.1408691,1.595459.3959961,2.9470215.7651367,4.0539551Zm.0814209-7.1149902c1.0095215.4992676,1.5142822,1.0419922,1.5142822,1.6281738,0,.3691406-.1791992.5534668-.5373535.5534668-.260498,0-.4179688-.1896973-.472168-.5698242-.0544434-.5100098-.2930908-.9658203-.7164307-1.3676758l.2116699-.2441406Z"/>
      <path class="cls-6" d="m85.7920497,80.5109746v-2.8166504c1.1177979.0544434,1.677002.1953125,1.677002.4233398,0,.1520996-.2442627.3039551-.732666.4558105v1.9375h4.7542725l.8791504-1.1235352c.3798828.3256836.7816162.7382812,1.204834,1.2375488l-.1790771.2929688h-7.5220947c.9549561.1848145,1.4327393.3581543,1.4327393.5209961,0,.1086426-.1846924.2172852-.5535889.3256836v1.7746582h3.7773438l.6187744-.732666c.6728516.4995117,1.0093994.8249512,1.0093994.9770508,0,.0649414-.0544434.1357422-.1627197.2116699l-.3745117.3093262v4.5749512c0,.857666-.5373535,1.286377-1.6119385,1.286377,0-.2822266-.1574707-.4829102-.472168-.6025391-.3255615-.1408691-.862915-.265625-1.6118164-.3742676v-.4560547c.7380371.1086426,1.4597168.1628418,2.1654053.1628418.3907471,0,.5861816-.1682129.5861816-.5046387v-4.4611816h-3.9239502v8.1569824h-.9768066v-8.1569824h-3.6796875v6.3823242h-.9443359v-7.2941895c.3363037.1411133.6512451.2878418.9443359.4396973l.130249.0812988h3.5494385v-2.6213379h-6.3173828l-.1953125-.4069824h6.5289307Z"/>
      <path class="cls-6" d="m98.931454,84.3535039v.0161133c.5860596.2390137,1.1396484.5537109,1.6606445.9443359.5535889.4128418.8304443.7924805.8304443,1.1398926,0,.3798828-.168457.5698242-.5047607.5698242-.1846924,0-.3529053-.1572266-.5047607-.472168-.2714844-.5861816-.7652588-1.1503906-1.4815674-1.6933594v7.2290039h-.8955078v-6.7080078c-.6838379.7165527-1.4437256,1.3950195-2.2794189,2.0351562l-.2606201-.2929688c1.9212646-1.7910156,3.4191895-3.8261719,4.4937744-6.1057129h-4.0540771l-.1466064-.4069824h2.2631836v-3.0446777c1.0419922.043457,1.5631104.1848145,1.5631104.4233398,0,.1411133-.2280273.2878418-.6838379.4396973v2.1816406h.9768066l.602417-.7814941c.6729736.5861816,1.0095215.9553223,1.0095215,1.1071777,0,.0544434-.0488281.1086426-.1464844.1628418l-.4396973.1953125c-.6512451,1.204834-1.3187256,2.2253418-2.0025635,3.0610352Zm9.4921875-5.5522461l.8140869-1.0256348c.4014893.3149414.7758789.6838379,1.1234131,1.1071777l-.1464844.3093262h-8.8409424l-.1303711-.3908691h7.1802979Zm-5.552124,6.8710938h5.8126221l.5861816-.7165527c.6728516.5209961,1.0093994.8466797,1.0093994.9770508,0,.0759277-.043457.1464844-.130249.2116699l-.4069824.260498v5.6821289h-.9443359v-.8139648h-6.1381836v.8139648h-.9443359v-6.8869629c.260498.0976562.6456299.255127,1.1558838.472168Zm-.2115479.390625v2.1166992h2.539917v-2.1166992h-2.539917Zm2.539917,2.5073242h-2.539917v2.2958984h2.539917v-2.2958984Zm-1.4816895-7.7663574h3.9075928l.5699463-.7163086c.6618652.4992676.9931641.8195801.9931641.9606934,0,.0649414-.0488281.1247559-.1466064.1789551l-.3743896.2932129v3.0446777h-.9281006v-.6350098h-4.135498v.732666h-.8792725v-4.3310547c.2821045.1196289.6131592.2768555.9931641.472168Zm-.1138916.3908691v2.3444824h4.135498v-2.3444824h-4.135498Zm5.1938477,6.9848633v-2.1166992h-2.6865234v2.1166992h2.6865234Zm0,2.6865234v-2.2958984h-2.6865234v2.2958984h2.6865234Z"/>
      <path class="cls-6" d="m115.0177577,79.4850957h9.3619385l.6512451-.7651367c.6619873.5319824.9932861.8686523.9932861,1.0095215,0,.0869141-.0544434.1520996-.1628418.1953125l-.4071045.260498v11.2995605h-.9443359v-1.3024902h-9.6712646v1.4489746h-.9769287v-12.699707c.34729.1411133.732666.3256836,1.1560059.5534668Zm-.1790771.4072266v4.5751953h4.2821045v-4.5751953h-4.2821045Zm4.2821045,4.9821777h-4.2821045v4.9006348h4.2821045v-4.9006348Zm5.3891602-.4069824v-4.5751953h-4.4611816v4.5751953h4.4611816Zm0,5.3076172v-4.9006348h-4.4611816v4.9006348h4.4611816Z"/>
      <path class="cls-6" d="m137.3888514,87.7399785c-.8575439,1.2700195-1.9647217,2.3881836-3.3214111,3.3540039l-.2768555-.3417969c1.5847168-1.3242188,2.7407227-2.8168945,3.4680176-4.4775391h-2.9144287l-.1464844-.4069824h3.1911621v-1.9050293c.9985352.0544434,1.4979248.1738281,1.4979248.3581543,0,.1196289-.2009277.255127-.602417.4072266v1.1396484h1.6281738l.6838379-.9118652c.3688965.380127.6619873.7165527.8791504,1.0095215l-.1790771.3093262h-3.012085v.6513672c1.8016357.6621094,2.7027588,1.3676758,2.7027588,2.1164551,0,.3583984-.1628418.5373535-.4884033.5373535-.1628418,0-.3203125-.135498-.472168-.4069824-.4127197-.6728516-.9932861-1.2644043-1.7421875-1.7746582v4.6889648h-.8955078v-4.347168Zm.862915-4.4775391c.4123535-.9443359.7270508-1.9101562.9443359-2.8979492.9117432.3254395,1.3676758.5861816,1.3676758.7814941,0,.130127-.2172852.2009277-.6512451.2116699-.2388916.5209961-.6350098,1.1560059-1.1885986,1.9047852h1.5631104l.6674805-.9279785c.303833.3366699.5698242.6730957.7978516,1.0095215l-.1628418.3417969h-7.4244385l-.1790771-.4233398h4.2657471Zm-.862915-3.4677734v-2.2143555c1.0095215.0544434,1.5141602.1953125,1.5141602.4233398,0,.1193848-.2062988.255127-.6186523.4069824v1.3840332h1.6281738l.6512451-.9606934c.3256836.3149414.5861816.6132812.7814941.8955078l.1140137.1628418-.2116699.3093262h-6.6917725l-.1954346-.4069824h3.0284424Zm-1.9700928.6186523c1.1287842.6621094,1.6933594,1.3623047,1.6933594,2.1003418,0,.4016113-.1900635.6022949-.5699463.6022949-.2497559,0-.3907471-.1953125-.4233398-.5861816-.0544434-.5966797-.3581543-1.215332-.9117432-1.855957l.2116699-.260498Zm7.7012939,3.3703613v.260498c-.0109863,1.6931152-.1790771,3.1369629-.5047607,4.3308105-.3907471,1.4221191-1.0855713,2.6433105-2.0841064,3.6633301l-.3255615-.2766113c.8682861-1.2375488,1.4327393-2.6540527,1.6932373-4.2495117.1954346-1.1071777.2930908-2.3989258.2930908-3.8752441v-4.607666c.4123535.1520996.7596436.298584,1.0419922.4396973,1.2700195-.3908691,2.3446045-.9333496,3.223877-1.6281738.737915.4667969,1.1070557.7978516,1.1070557.9931641,0,.1086426-.0976562.1628418-.2929688.1628418-.1412354,0-.2987061-.0217285-.47229-.0651855-1.0528564.3908691-2.2794189.7163086-3.6795654.9768066v3.4680176h3.6470947l.7652588-1.0583496c.4013672.3583984.737915.7329102,1.0093994,1.1235352l-.1464844.342041h-2.1817627v8.1081543h-.9443359v-8.1081543h-2.1491699Z"/>
      <path class="cls-6" d="m158.9946864,82.1716191v.6677246c0,1.2697754-.4395752,2.2685547-1.3188477,2.9956055.8248291.0871582,1.2374268.2336426,1.2374268.4396973,0,.1086426-.2009277.2280273-.602417.3581543v.6350098h4.8845215l.8303223-.862793c.34729.2497559.7218018.5698242,1.1235352.9604492l-.1791992.3093262h-6.3010254c.0325928.0327148.0595703.0544434.0814209.0651855,1.6933594,1.2375488,3.8695068,2.1330566,6.5290527,2.6865234-.3475342.2929688-.5917969.6242676-.732666.9931641-2.6376953-.8574219-4.7164307-2.029541-6.2359619-3.5168457v4.1843262h-.9117432v-3.6306152c-1.7368164,1.4870605-3.9564209,2.5725098-6.6591797,3.2563477l-.1791992-.3745117c2.6918945-.8793945,4.8138428-2.1003418,6.3662109-3.6635742h-6.0405273l-.1954346-.4069824h6.7081299v-1.2211914c-.4343262.2932129-.9825439.5537109-1.6444092.7817383l-.1791992-.3583984c1.6715088-.7705078,2.5074463-1.9753418,2.5074463-3.614502v-1.4816895c.2060547.0761719.5153809.206543.9279785.3908691h2.6539307l.4559326-.472168c.5751953.4016113.862915.6674805.862915.7978516,0,.043457-.038208.0869141-.1140137.130127l-.3255615.2116699v2.5236816c0,.2714844.1898193.4069824.5698242.4069824.3363037,0,.5426025-.1137695.6187744-.3417969.130249-.347168.2116699-.9008789.2441406-1.6606445l.4233398.1628418c-.0108643.130127-.0162354.2712402-.0162354.4230957,0,.8903809.1953125,1.329834.5860596,1.3188477-.0218506.380127-.1627197.6296387-.4232178.7490234-.2172852.0869141-.6187744.1303711-1.2049561.1303711-.6186523,0-1.0419922-.043457-1.2698975-.1303711-.2714844-.0976562-.4071045-.347168-.4071045-.7490234v-3.0935059h-2.670166Zm-5.3729248-3.0283203h2.7189941l.6838379-.9279785c.34729.2929688.6456299.6350098.8955078,1.0256348l-.1628418.3093262h-3.3702393c.824707.4885254,1.2373047.982666,1.2373047,1.4816895,0,.380127-.1846924.5698242-.5534668.5698242-.2714844,0-.4343262-.173584-.4885254-.5209961-.0976562-.5861816-.3745117-1.0961914-.8303223-1.5305176h-.3745117c-.6186523,1.0856934-1.4547119,2.0246582-2.5073242,2.8168945l-.2930908-.2768555c1.204834-1.2155762,2.0947266-2.7785645,2.670166-4.689209.9550781.1738281,1.4327393.3637695,1.4327393.5698242,0,.1303711-.2335205.2390137-.7000732.3256836-.1412354.3476562-.260498.6296387-.3581543.8466797Zm.9931641,3.4680176v2.2792969c.8898926-.130127,1.7854004-.3037109,2.6865234-.5209961l.0488281.3745117c-1.802002.6296387-3.5656738,1.112793-5.291626,1.4492188-.0869141.3691406-.1846924.5534668-.2930908.5534668-.2171631,0-.4395752-.4775391-.6674805-1.4328613.6403809-.0432129,1.5195312-.1408691,2.6375732-.2929688v-2.409668h-2.1165771l-.1464844-.4069824h4.2006836l.6674805-.7978516c.3688965.3364258.6729736.6459961.9117432.9279785l-.1790771.2768555h-2.4584961Zm5.0147705-3.4680176h3.5982666l.7652588-.9768066c.3581543.3149414.7000732.6730957,1.0257568,1.0744629l-.1954346.3093262h-4.5426025c.9117432.4343262,1.3676758.901123,1.3676758,1.4003906,0,.3691406-.1737061.5534668-.5209961.5534668-.2714844,0-.4343262-.135498-.4885254-.4069824-.0976562-.5861816-.428833-1.1015625-.9931641-1.546875h-.2767334c-.5429688.7600098-1.2104492,1.4221191-2.0026855,1.9863281l-.260498-.260498c1.074585-1.1286621,1.8126221-2.4040527,2.2143555-3.8261719.8898926.1520996,1.335083.3312988,1.335083.5373535,0,.1196289-.2116699.2280273-.6350098.3256836-.1196289.3364258-.2498779.6132812-.3907471.8303223Zm-.0651855,3.5168457c.8898926.6621094,1.3352051,1.3188477,1.3352051,1.9699707,0,.3908691-.1848145.5861816-.5535889.5861816-.260498,0-.4017334-.2116699-.4233398-.6350098-.0109863-.6186523-.2226562-1.1884766-.6350098-1.7094727l.2767334-.2116699Z"/>
      <path class="cls-6" d="m170.8640711,82.0087773h7.619873l.5860596-.7487793c.7055664.5427246,1.0583496.8955078,1.0583496,1.0581055,0,.0651855-.0380859.1140137-.1140137.1467285l-.4558105.3093262v4.6564941h-.9606934v-1.1723633h-7.9128418c-.2388916,2.5183105-1.2484131,4.4450684-3.0284424,5.7800293l-.260498-.2929688c1.5737305-1.5847168,2.3608398-3.8532715,2.3608398-6.8056641v-3.4519043c.3907471.1738281.7596436.3476562,1.1071777.5209961Zm8.3361816-2.8166504l.8792725-1.1071777c.3581543.3039551.7380371.6948242,1.1397705,1.1723633l-.1628418.3417969h-12.9277344l-.130249-.4069824h11.2017822Zm-8.4501953,3.223877v2.5073242c0,.2062988-.0108643.515625-.0324707.9279785h7.880249v-3.4353027h-7.8477783Z"/>
      <path class="cls-6" d="m187.2434657,88.7170293c1.4870605,1.378418,4.1083984,2.067627,7.8641357,2.067627.9875488,0,2.1761475-.0488281,3.5656738-.1464844-.2388916.3149414-.4127197.6618652-.5209961,1.0419922h-2.9632568c-3.8859863,0-6.6429443-.7705078-8.2711182-2.3120117-.6838379,1.1833496-1.6281738,2.1435547-2.8330078,2.8818359l-.2930908-.3256836c1.074585-.9116211,1.9102783-1.9968262,2.5073242-3.2561035-.6296387-.8032227-1.1126709-1.8181152-1.4490967-3.0446777l.4071045-.1791992c.4233398,1.1071777.8682861,1.9699707,1.335083,2.5888672.4665527-1.03125.7868652-2.3662109.9605713-4.0053711h-1.6606445c-.1412354.2387695-.3149414.515625-.5209961.8303223l-.8304443-.2929688c1.1397705-1.8237305,2.0133057-3.576416,2.6213379-5.2590332h-3.012085l-.1464844-.3908691h3.142334l.5861816-.7163086c.6402588.5861816.9605713.9499512.9605713,1.0908203,0,.0761719-.0488281.1359863-.1464844.1791992l-.472168.2277832c-.597168,1.411377-1.2484131,2.7248535-1.9538574,3.9401855h1.3676758l.602417-.7651367c.6403809.5429688.9605713.8847656.9605713,1.0256348,0,.0651855-.043457.125-.130249.1791992l-.4395752.260498c-.2062988,1.7258301-.6186523,3.185791-1.2374268,4.3798828Zm5.3078613-7.0664062h-4.2006836l-.1790771-.4233398h4.3797607v-1.5793457h-2.8330078l-.1464844-.4069824h2.9794922v-1.677002c1.0853271.0109863,1.6281738.1464844,1.6281738.4069824,0,.1303711-.2279053.2714844-.6838379.4233398v.8466797h2.0515137l.5861816-.732666c.6618652.4885254.9931641.8195801.9931641.9931641,0,.0544434-.038208.1032715-.1140137.1464844l-.4069824.260498v1.3188477h.472168l.602417-1.0256348c.3255615.4233398.5804443.7871094.7651367,1.0908203l-.1464844.3581543h-1.6932373v2.8005371h-.8955078v-.6838379h-2.2143555v1.6933594h2.4910889l.732666-.7978516c.3582764.260498.689209.559082.9931641.8955078l-.1627197.3093262h-4.0541992v1.7094727h3.0446777l.8140869-1.0092773c.1083984.1083984.2060547.2062988.2930908.2929688.2386475.2062988.4775391.472168.7164307.7978516l-.1791992.3256836h-4.6890869v2.067627h-.9443359v-2.067627h-3.9890137l-.2279053-.4072266h4.2169189v-1.7094727h-3.3377686l-.1628418-.4069824h3.5006104v-1.6933594h-2.9144287l-.1790771-.4069824h3.0935059v-1.7097168Zm.9443359-.4233398h2.2143555v-1.5793457h-2.2143555v1.5793457Zm0,.4233398v1.7097168h2.2143555v-1.7097168h-2.2143555Z"/>
      <path class="cls-6" d="m213.0173915,78.5082891c2.019043,2.2036133,4.3691406,3.782959,7.050293,4.7380371-.293457.2387695-.5429688.5698242-.7490234.9931641-2.7680664-1.3352051-4.949707-3.1098633-6.5454102-5.3242188-.6513672.9228516-1.2319336,1.6555176-1.7421875,2.197998-1.378418,1.4980469-3.1315918,2.7192383-5.2589111,3.6635742l-.2442627-.3583984c2.0947266-1.1176758,3.8151855-2.5505371,5.161377-4.2983398.5317383-.7163086,1.0800781-1.5793457,1.6445312-2.588623.9008789.2387695,1.3510742.4614258,1.3510742.6674805,0,.130127-.2226562.2336426-.6674805.3093262Zm.1303711,9.0527344v3.2888184h4.0541992l.8789062-1.1396484c.4125977.3254395.8144531.732666,1.2050781,1.2209473l-.1791992.3256836h-12.6345215l-.1953125-.4069824h5.9265137v-3.2888184h-3.9075928l-.1954346-.4072266h4.1030273v-2.9631348h-4.0053711l-.1464844-.4069824h7.359375l.7978516-.7653809c.3798828.2390137.7597656.5209961,1.1396484.8466797l-.1953125.3256836h-4.0053711v2.9631348h2.2792969l.7978516-.9443359c.2714844.2172852.6352539.5700684,1.0908203,1.0583496l-.1625977.2932129h-4.0053711Z"/>
      <path class="cls-6" d="m225.5869715,83.7673223h.9931641c.8466797,0,1.4980469-.2548828,1.9538574-.7653809.3798828-.4338379.5698242-1.0200195.5698242-1.7583008,0-.564209-.1464844-1.0419922-.4396973-1.4328613-.4125977-.5317383-.9660645-.7978516-1.6606445-.7978516-1.0639648,0-1.7583008.3745117-2.0839844,1.1235352.347168.1411133.5209961.3908691.5209961.7490234,0,.5754395-.2824707.862793-.8466797.862793-.5754395,0-.8630371-.3146973-.8630371-.9443359,0-.5317383.2658691-1.0256348.7978516-1.4814453.6621094-.5537109,1.4870605-.8305664,2.4748535-.8305664.7705078,0,1.4382324.168457,2.0026855.5048828.8681641.5102539,1.3024902,1.2592773,1.3024902,2.2468262,0,1.6826172-1.0151367,2.6376953-3.0446777,2.8654785.814209.0761719,1.4870605.2661133,2.019043.5700684.9333496.5427246,1.4001465,1.3513184,1.4001465,2.4257812,0,1.1943359-.4777832,2.0678711-1.4328613,2.6213379-.6296387.3908691-1.4165039.5861816-2.3608398.5861816-.9660645,0-1.7746582-.2006836-2.4260254-.6022949-.7597656-.4560547-1.1396484-1.0148926-1.1396484-1.677002,0-.1628418.0327148-.3039551.0976562-.4233398.173584-.3364258.4450684-.5048828.814209-.5048828.5534668,0,.8303223.2824707.8303223.8466797,0,.3149414-.125.5319824-.3745117.6513672.2929688.7924805,1.0202637,1.1884766,2.1818848,1.1884766.7595215,0,1.3674316-.2385254,1.8234863-.7163086.4882812-.5100098.732666-1.1777344.732666-2.0026855,0-.9550781-.3476562-1.6713867-1.0419922-2.1491699-.4777832-.3364258-1.0803223-.5048828-1.807373-.5048828h-.9931641v-.651123Z"/>
      <path class="cls-6" d="m235.1768153,84.3859746c-.4885254,1.5305176-1.1560059,3.0068359-2.0026855,4.4287109l-.3745117-.2768555c1.0961914-2.0515137,1.8776855-4.3742676,2.3447266-6.9685059h-2.0678711l-.1464844-.4069824h2.2468262v-3.5820312c1.0852051.0544434,1.6281738.2062988,1.6281738.4558105,0,.1411133-.2390137.2878418-.7163086.4396973v2.6865234h.9768066l.6513672-.9282227c.3254395.3256836.6240234.6730957.8952637,1.0419922l-.1625977.2932129h-2.3608398v1.7746582c.6401367.4343262,1.1396484.9335938,1.4978027,1.4978027.3256836.4453125.4885254.8305664.4885254,1.1560059,0,.380127-.1848145.5700684-.5537109.5700684-.2062988,0-.3310547-.1193848-.3745117-.3583984-.1520996-.7595215-.5046387-1.5356445-1.0581055-2.328125v8.2058105h-.9118652v-7.7011719Zm7.8476562-2.4421387h2.2470703l.6186523-.7165527c.6293945.510498.9443359.8413086.9443359.9931641,0,.0544434-.043457.1086426-.1303711.1628418l-.390625.2443848v4.4772949h-.8955078v-.6674805h-2.2956543c.0214844.043457.0593262.0869141.1137695.1303711,1.1723633,1.4760742,2.7028809,2.6538086,4.5915527,3.532959-.3149414.260498-.559082.5861816-.732666.9770508-1.7150879-1.0422363-3.0720215-2.3879395-4.0705566-4.0378418v5.0471191h-.8955078v-4.4123535c-1.2155762,1.5090332-2.7788086,2.8005371-4.6889648,3.8752441l-.260498-.3583984c1.9970703-1.3024902,3.5710449-2.887207,4.7216797-4.7541504h-2.019043v.814209h-.9116211v-5.894043c.390625.2062988.7431641.4016113,1.0581055.5861816h2.1003418v-1.7421875h-3.9074707l-.1464844-.4069824h4.0539551v-2.2143555c1.03125.0324707,1.546875.1628418,1.546875.390625,0,.1086426-.2172852.255127-.6513672.4396973v1.3840332h2.751709l.8303223-.9934082c.4665527.4453125.8085938.7978516,1.0258789,1.0583496l-.1628418.342041h-4.4450684v1.7421875Zm-.8955078.4069824h-2.2468262v1.5793457h2.2468262v-1.5793457Zm0,1.9863281h-2.2468262v1.7094727h2.2468262v-1.7094727Zm.8955078-1.9863281v1.5793457h2.3935547v-1.5793457h-2.3935547Zm0,1.9863281v1.7094727h2.3935547v-1.7094727h-2.3935547Z"/>
    </g>
    <rect class="cls-6" x="254.3694118" y="88.3244664" width="33.9806421" height=".9437573"/>
    <rect class="cls-6" x="4.4638707" y="88.3244664" width="33.9806421" height=".9437573"/>
    <rect class="cls-6" x="254.3694118" y="81.9617366" width="33.9806421" height=".9437573"/>
    <rect class="cls-6" x="4.4638707" y="81.9617366" width="33.9806421" height=".9437573"/>
    <g>
      <g>
        <g>
          <path class="cls-6" d="m143.5189623,22.0501817h1.2578194c.4114922,0,.9323365.0706869.9323365.5490871v4.3075379s-1.4124806.5117466-3.9711539.5117466c-2.5557405,0-5.9824079-1.386145-5.9824079-5.2278359,0-3.8290699,3.5672032-5.3312626,6.2082947-5.3312626,1.1833617,0,2.6691627.0704475,2.6691627.7262612v1.2829578c-1.0044599-.8068919-1.4092485-.950113-2.9338943-.950113-1.5241072,0-4.2508488.9881199-4.2508488,4.182129,0,3.1978558,3.6598563,5.0971839,6.6978357,3.8954473v-2.4487904c0-.5131751-.029807-1.4971651-.627144-1.4971651Z"/>
          <path class="cls-6" d="m162.6442807,27.1622611h3.2329201c-.8954668-.3282361-1.2622485-1.3847085-1.5554105-2.1547825-.3033371-.767201-2.6410914-6.3550551-2.9034887-7.1297976-.2580879-.7636696-.6315731-.7636696-.9270694-.7636696h-1.8589869c.8960055.2928029.4076632.9161761.2606616,1.3501731-.1484364.4424962-3.2723653,8.0413649-3.2723653,8.0413649-1.0798751-.2902292-3.7855469-4.2055478-3.7855469-4.2055478,3.6081414-1.0228947,3.0479135-5.1859903-.4754755-5.1859903h-4.0497414c.8136472.176807.7399677,1.0237327.7399677,1.6763742v6.9143852c0,.9504122-.2983692,1.202036-.7747425,1.4574903h2.9642999c-.8136472-.3630109-.5982348-1.205268-.5982348-1.6018567v-7.4585723h1.6018567c.8518935,0,1.4828682,1.0246305,1.4828682,1.7219226,0,1.1254834-.8907983,1.5670738-1.7824345,1.8975924-.8890625.3247047-.4068236,1.0568316,0,1.6459687.4161607.5824933,1.6009589,2.2258205,2.3055533,3.02954.7084234.8010181,1.3297616.7654054,1.6734399.7654054h2.6750283c-1.0371981-.3282361-.4851717-1.1298527-.3405044-1.5284764.1484947-.4109535.8223858-2.1241455.8223858-2.1241455h4.0056277s.4842739,1.2400509.9294037,2.3388996c.4471049,1.1006443.1124645,1.2429757-.370012,1.3137224Zm-4.1602324-4.820713l1.5293742-3.9144726,1.6260973,3.9144726h-3.1554716Z"/>
          <path class="cls-6" d="m195.1632354,27.1622611h3.2378871c-.8922321-.3282361-1.2642835-1.3847085-1.5550513-2.1547825-.2978279-.767201-2.6402534-6.3550551-2.89888-7.1297976-.2621579-.7636696-.6315731-.7636696-.9299424-.7636696h-1.8552137c.8931301.2928029.4074197.9161761.2615594,1.3501731-.1531673.4424962-3.2697342,8.0413649-3.2697342,8.0413649-.2092475.474039-.5143802.4854111-.6999257.6567116h2.667367c-1.0401325-.3282361-.4793061-1.1298527-.3357776-1.5284764.1431693-.4109535.8159815-2.1241455.8159815-2.1241455h4.016403s.4845732,1.2400509.9273088,2.3388996c.4392641,1.1006443.106958,1.2429757-.3819819,1.3137224Zm-4.1502353-4.820713l1.5173412-3.9144726,1.6395643,3.9144726h-3.1569056Z"/>
          <path class="cls-6" d="m183.7370381,27.3524752c.372348-.3354783.7081256-.5891371.7081256-1.759339v-6.9073744c0-.5480178-.0286076-1.1687575-.7081256-1.3949435h2.8652424c-.2954364.2595244-.6482124.5868626-.6482124,1.3195282v6.9827896c0,.6221841-.135568,1.5378215.6935214,1.759339h-2.9105514Z"/>
          <path class="cls-6" d="m168.3595609,19.452903s-.0365106,5.5177059-.0365106,6.1402333c0,.6221841.0818196,1.5378215.8960653,1.759339h-2.7153695c.3743831-.3354783.6722136-.5891371.6722136-1.759339,0-1.1663554.0695497-6.3635463.0695497-6.9073744,0-.5480178-.0695497-1.1687575-.7417633-1.3949435h2.0834971l6.2357672,7.7166602v-6.288139c0-.4015565.0780509-1.1689969-.7755804-1.4615603h2.7848593c-.3355361.2592251-.8247201.3638489-.8247201,1.4279826v9.0700654s-.769236.1408351-2.0347165-1.3589716c-1.2651214-1.4963351-5.6132918-6.9439527-5.6132918-6.9439527Z"/>
          <path class="cls-6" d="m186.107233,35.1290486c-8.1687928-6.7741486-11.2903275-14.7494354-.1198265-25.6370094.3474514-.3346488.6823887-.1347384.4068236.1774055-4.9007969,5.5048973-10.3545195,14.3215434-.1140207,25.1208934.1613648.1727369.0970224.521383-.1729763.3387104Z"/>
        </g>
        <path class="cls-6" d="m200.6382948,27.2494729c-.7570504,0-1.3729573-.6159069-1.3729573-1.3729573s.6159069-1.3729573,1.3729573-1.3729573,1.3729573.6159069,1.3729573,1.3729573-.6159069,1.3729573-1.3729573,1.3729573Zm0-2.5715708c-.66094,0-1.1986135.5376735-1.1986135,1.1986135s.5376735,1.1986135,1.1986135,1.1986135,1.1986135-.5376735,1.1986135-1.1986135-.5376735-1.1986135-1.1986135-1.1986135Z"/>
        <path class="cls-6" d="m200.9694459,26.6213926c-.0303059-.0282628-.0485234-.0504814-.0485234-.1575734v-.1778341c0-.1050489-.0322638-.2424468-.1899224-.2424468h-.3778016v.5778543h-.2727527v-1.4749416h.6949915c.2747958,0,.4546729.1697468.4546729.4000202,0,.0970468-.0323489.1859213-.0909176.2525772-.0566107.0646979-.1051341.0909176-.2303585.1191803.143442.0202607.282883.0626548.282883.3394937v.1494862c0,.1475282.0545676.1859213.0949186.2141841h-.3171899Zm-.2303585-1.2445831h-.3858889v.4363702h.3414516c.1515293,0,.2444899-.0787441.2444899-.2302734,0-.1333968-.0788293-.2060968-.2000527-.2060968Z"/>
      </g>
      <g>
        <path class="cls-6" d="m155.5813751,65.4849219c-2.4235002,1.3989435-5.2429569,2.0968746-8.4614515,2.0968746-4.1105522,0-7.3506164-1.2587411-9.7186519-3.7793045-2.3695762-2.5190228-3.5528236-5.9593763-3.5528236-10.3241418,0-4.4233116,1.1385675-7.8621244,3.4172432-10.3148976,2.277135-2.4527733,5.4725193-3.6791599,9.5830715-3.6791599,2.0968746,0,4.8516225.4452585,8.2627029,1.3373161v5.1166206h-2.2247516l-.0231103-.3605207c-.0169476-.3620614-.0323544-.71796-.049302-1.0676959,0-1.180166-.5469438-2.1122815-1.6423721-2.793265s-2.5883537-1.0214753-4.4787763-1.0214753c-2.710068,0-4.8701107,1.1570557-6.4832098,3.4711672-1.6146397,2.3141115-2.4204189,5.4062697-2.4204189,9.2764748,0,3.8809899.9459817,6.90998,2.837945,9.0854296,1.893504,2.1754497,4.5265376,3.2631745,7.9021822,3.2631745,2.2062634,0,4.5573513-.6809835,7.0517232-2.0429506v1.7363539Z"/>
        <path class="cls-6" d="m171.6476563,64.2277215c-2.124607,2.0922526-4.2230223,3.1368382-6.2983273,3.1368382-1.6639417,0-3.0521004-.5269149-4.1613949-1.583826-1.1092944-1.0569111-1.6639417-2.3819017-1.6639417-3.9749718,0-1.8580682.7225821-3.3679412,2.1692869-4.5265376,1.6516162-1.328072,4.4479626-1.9921079,8.3890392-1.9921079h.742611v-2.4419885c0-3.0967803-1.175544-4.6467112-3.5266319-4.6467112-1.096969,0-2.0676016.3374104-2.9103572,1.0137719-.4945604.4098227-.8088605,1.2464156-.9413596,2.5128601l-.0169476.3435731h-2.4235002v-3.5990442c2.5066973-1.0954283,4.8331343-1.6454534,6.9793109-1.6454534,4.2677022,0,6.4000127,1.9612942,6.4000127,5.8823419v8.7603447c0,1.5684191.1371211,2.6730915.408282,3.3124765.2711609.639385.7441517.9583071,1.4189725.9583071.2403471,0,.56081-.0554647.9583071-.1648535l.1078481,1.3403975c-.8550811.3004339-1.6208024.4514212-2.2956232.4514212-1.7563829,0-2.867218-1.0445856-3.3355868-3.1368382Zm-.8227267-.4067413v-7.4307321h-.8319708c-2.0984153,0-3.737706.4360143-4.917872,1.3065023-1.1817067.8720287-1.7733304,2.070683-1.7733304,3.5944221,0,1.1385675.3682241,2.0830085,1.1031317,2.8333229.7349076.7503144,1.6516162,1.1247013,2.7485851,1.1247013,1.0368822,0,2.2601874-.4760722,3.6714565-1.4282166Z"/>
        <path class="cls-6" d="m180.334048,65.9009073v-4.9902843h2.0075148l.0354358.3435731c.15715,1.8026035.2742422,2.8225381.3528173,3.0582632s.3944158.5346183.949063.8966797c1.0861841.7025531,2.2971639,1.0538297,3.63448,1.0538297,1.0861841,0,1.9736197-.329707,2.6669287-.9891209s1.0399635-1.509873,1.0399635-2.5498365c0-.91979-.2295623-1.6516162-.6871463-2.1954786-.4699095-.5330776-1.2957175-1.027638-2.4774243-1.4883034l-1.8257138-.7056345c-1.9643756-.7595586-3.3879701-1.6161804-4.2677022-2.5698655-.8797321-.9413596-1.3188278-2.0860898-1.3188278-3.4388128,0-1.5915294.6347629-2.9072759,1.9073702-3.944158,1.2710666-1.0384229,2.8903283-1.5576343,4.8547039-1.5576343,1.9166143,0,3.8994781.3743869,5.9485915,1.1216199v4.6836877h-2.0075148v-.3266256c-.0724123-1.180166-.1679349-1.99673-.2881084-2.4496919-.1217143-.4514212-.3143001-.7857502-.5792982-1.0029871-.7842095-.614734-1.7301912-.9228714-2.8394856-.9228714-1.047667,0-1.9196957.3374104-2.611464,1.0122312-.693309.6732801-1.0399635,1.5221985-1.0399635,2.5452145,0,.8427556.2834864,1.5160357.8489184,2.021381.5546472.5176707,1.6762672,1.1200793,3.3633191,1.8056848l1.6639417.688687c1.819551.7472331,3.0921583,1.5206578,3.8147403,2.3156522.7117973.8088605,1.0676959,1.8457427,1.0676959,3.1137279,0,1.7486794-.6963904,3.1753553-2.0891712,4.2800277-1.3912401,1.1031317-3.2030877,1.6546975-5.4324614,1.6546975-2.3510879,0-4.5820023-.486857-6.6912025-1.4636524Z"/>
        <path class="cls-6" d="m210.412875,64.2277215c-2.124607,2.0922526-4.2230223,3.1368382-6.2983273,3.1368382-1.6639417,0-3.0521004-.5269149-4.1613949-1.583826-1.1092944-1.0569111-1.6639417-2.3819017-1.6639417-3.9749718,0-1.8580682.7225821-3.3679412,2.1692869-4.5265376,1.6516162-1.328072,4.4479626-1.9921079,8.3890392-1.9921079h.742611v-2.4419885c0-3.0967803-1.175544-4.6467112-3.5266319-4.6467112-1.096969,0-2.0676016.3374104-2.9103572,1.0137719-.4945604.4098227-.8088605,1.2464156-.9413596,2.5128601l-.0169476.3435731h-2.4235002v-3.5990442c2.5066973-1.0954283,4.8331343-1.6454534,6.9793109-1.6454534,4.2677022,0,6.4000127,1.9612942,6.4000127,5.8823419v8.7603447c0,1.5684191.1371211,2.6730915.408282,3.3124765s.7441517.9583071,1.4189725.9583071c.2403471,0,.56081-.0554647.9583071-.1648535l.1078481,1.3403975c-.8550811.3004339-1.6208024.4514212-2.2956232.4514212-1.7563829,0-2.867218-1.0445856-3.3355868-3.1368382Zm-.8227267-.4067413v-7.4307321h-.8319708c-2.0984153,0-3.737706.4360143-4.917872,1.3065023-1.1817067.8720287-1.7733304,2.070683-1.7733304,3.5944221,0,1.1385675.3682241,2.0830085,1.1031317,2.8333229.7349076.7503144,1.6516162,1.1247013,2.7485851,1.1247013,1.0368822,0,2.2601874-.4760722,3.6714565-1.4282166Z"/>
        <path class="cls-6" d="m224.410014,67.1303753l-6.3753617-15.0432652c-.6624953-1.5792039-1.1416489-2.5775689-1.4374607-2.9935543s-.6902277-.6409257-1.1832474-.6779022l-.3081373-.0184882v-1.1200793h8.5184569v1.1200793h-.3435731c-1.5668784,0-2.3618728.2603761-2.3865237.7780468-.0123255.181801.3558986,1.1632185,1.1031317,2.9488744l4.4371778,10.4674256,4.5727582-10.445856c.7241228-1.6531569,1.0846435-2.6376557,1.0846435-2.9504151,0-.5315369-.7287448-.7980757-2.1877752-.7980757h-.3974972v-1.1200793h5.8145517v1.1200793l-.3805496.0184882c-.4452585.0369765-.7888316.1879638-1.0307194.4529619-.2156961.2403471-.7533958,1.3311533-1.6100176,3.2724186l-6.7898064,14.9893412h-1.1000503Z"/>
        <path class="cls-6" d="m243.6177554,47.2770861v14.9523647c0,1.6408314.1324991,2.6160861.3959565,2.9303862.2634574.3127594,1.1339454.5176707,2.6083826.614734l.3404918.0169476v1.1216199h-10.2517295v-1.1216199l.3435731-.0169476c1.4590303-.0970633,2.3233556-.305056,2.5945165-.6239781s.4067413-1.2926362.4067413-2.921142v-10.2702177c0-1.6269652-.1355804-2.5975978-.4067413-2.9103572s-1.1354861-.5238335-2.5945165-.6332222l-.3435731-.0184882v-1.1200793h6.9068986Zm-3.5620677-3.5620677v-3.5620677h3.5620677v3.5620677h-3.5620677Z"/>
        <path class="cls-6" d="m255.7321752,38.3626727v23.8667781c0,1.6408314.1324991,2.6160861.3959565,2.9303862.2634574.3127594,1.1339454.5176707,2.6083826.614734l.3404918.0169476v1.1216199h-10.2517295v-1.1216199l.3435731-.0169476c1.4590303-.0970633,2.3233556-.305056,2.5945165-.6239781s.4067413-1.2926362.4067413-2.921142v-19.1830905c0-1.6285059-.1355804-2.6006792-.4067413-2.921142-.2711609-.3189222-1.1354861-.5269149-2.5945165-.6239781l-.3435731-.0169476v-1.1216199h6.9068986Z"/>
        <path class="cls-6" d="m268.0807793,38.3626727v23.8667781c0,1.6408314.1324991,2.6160861.3959565,2.9303862.2634574.3127594,1.1339454.5176707,2.6083826.614734l.3404918.0169476v1.1216199h-10.2517295v-1.1216199l.3435731-.0169476c1.4590303-.0970633,2.3233556-.305056,2.5945165-.6239781s.4067413-1.2926362.4067413-2.921142v-19.1830905c0-1.6285059-.1355804-2.6006792-.4067413-2.921142-.2711609-.3189222-1.1354861-.5269149-2.5945165-.6239781l-.3435731-.0169476v-1.1216199h6.9068986Z"/>
        <path class="cls-6" d="m288.3500539,66.0272436c-2.2663502.8920576-4.3339518,1.3373161-6.2012641,1.3373161-2.8810842,0-5.222928-.9706326-7.0255315-2.9134386-1.8010628-1.9412653-2.7023645-4.4633695-2.7023645-7.5647718,0-2.9427117.8073198-5.3554271,2.4219595-7.2381463,1.6161804-1.8827192,3.6899447-2.8240788,6.221293-2.8240788,2.3372218,0,4.1367439.7888316,5.3970256,2.3649541,1.2587411,1.5761225,1.8888819,3.8255251,1.8888819,6.7497486v.3420325h-11.9880834c0,3.0628852.5330776,5.3739153,1.6007735,6.934631,1.0661552,1.5607157,2.6484405,2.3418438,4.7468558,2.3418438,2.2047227,0,4.0859012-.4529619,5.6404541-1.3558043v1.8257138Zm-11.9156712-10.8495159h8.1363666l.0184882-.7949944c0-2.2786757-.2958119-3.9241291-.8858949-4.9363603-.590083-1.0122312-1.5545529-1.5191171-2.8934097-1.5191171-1.3373161,0-2.4019306.6578732-3.1907622,1.972079-.7903723,1.3126651-1.1847881,3.07367-1.1847881,5.2783927Z"/>
      </g>
      <g>
        <path class="cls-6" d="m212.4925977,21.3283933c.1102864-.5589092.164495-1.0411786.164495-1.4505468,0-.4392764-.2149651-.7570509-.6430259-.9570618l.1046786-.1495409c.9963163,0,1.4954091.2598273,1.4954091.7776127,0,.0598164-.0093463.128979-.0299082.2093573-.0598164.2392655-.1701028.7420968-.32899,1.5103632,1.4150309-.0990709,2.2337674-.2392655,2.452471-.4187146.1102864-.0990709.2149651-.1495409.3140359-.1495409.1588872,0,.3345978.0972016.5233932.2916048s.2841277.3663752.2841277.5159161c0,.0990709-.0448623.1850569-.1345868.2542196-.1196327.0897245-.2093573.2897355-.2691736.5981636-.3682445,1.7944909-.8617295,3.1347514-1.480455,4.0226505-.2990818.4392764-.5925559.65798-.8822914.65798-.2187036,0-.32899-.128979-.32899-.3888064v-.0598164c0-.4392764-.32899-.9963163-.98697-1.6748582l.0897245-.2392655c.7682664.5682555,1.2056736.8878992,1.31596.9570618l.0598164.0448623c.0598164.0299082.1102864.0448623.1495409.0448623.0897245,0,.2972126-.3420748.6205948-1.0243552s.5701247-1.7514979.7402275-3.2076526c-1.7047664.200011-2.5664959.2990818-2.5870578.2990818-.32899,1.3552145-.786959,2.502941-1.3757764,3.439441-.7271427,1.1458572-1.9832863,2.1683432-3.768431,3.0655887l-.1196327-.2093573c2.3627464-1.5346636,3.8581555-3.5983282,4.4862274-6.1909938-.0691627.0093463-.1588872.0205619-.2691736.0299082-.65798.0990709-1.2318433.1944032-1.7197205.2841277-.2187036.0392545-.3831986.0598164-.493485.0598164-.5383473,0-.9477155-.3831986-1.2262355-1.151465l.1495409-.1046786c.3084281.3196437.7981746.4785309,1.4655009.4785309.5383473,0,1.2804441-.0542086,2.2281596-.164495Z"/>
        <path class="cls-6" d="m221.9435833,22.434996c.3084281.3495519.8374291.5233932,1.5851337.5233932,3.5291655,0,5.6732083-.128979,6.4302592-.3888064.1196327-.0504701.2299192-.0747705.32899-.0747705.2187036,0,.4336686.0841168.6430259.2542196.2093573.1495409.3140359.2785199.3140359.3888064,0,.1887954-.1794491.2841277-.5383473.2841277-.0299082,0-.1944032-.0056078-.493485-.0149541-.32899-.0205619-.7177964-.0299082-1.1664191-.0299082-2.4618173,0-4.2376156.0747705-5.3236565.2243114-.3196437.0504701-.5476936.0747705-.6878882.0747705-.5981636,0-1.0019241-.3738523-1.2112814-1.1215568l.1196327-.1196327Z"/>
        <path class="cls-6" d="m242.1166523,21.3732556v-.2691736c.0093463-.2785199.0149541-.4243223.0149541-.4336686,0-.6673263-.0504701-1.0916487-.1495409-1.2710978-.0803782-.1701028-.2747814-.3196437-.5832096-.4486227l.0897245-.164495c.9963163-.0392545,1.4954091.1944032,1.4954091.7028423,0,.0598164-.0093463.1551487-.0299082.2841277-.0598164.3794601-.0953323.9028533-.1046786,1.5701796.8075209-.0598164,1.3701686-.1495409,1.6898123-.2691736.1495409-.0504701.2542196-.0747705.3140359-.0747705.2990818,0,.5738632.1140249.822475.3439441.128979.1196327.1944032.2243114.1944032.3140359,0,.1794491-.2037495.2691736-.6131177.2691736h-.1794491c-.1102864,0-.2187036-.0056078-.32899-.0149541-.3383363-.0205619-.6729341-.0299082-1.0019241-.0299082h-.8972455c.0093463,1.186981-.321513,2.4020009-.9944471,3.6487983-.6729341,1.2467974-1.9814171,2.1982514-3.9254489,2.8562314l-.1794491-.1944032c1.6842045-.7776127,2.831931-1.7215897,3.439441-2.8338003.60751-1.1122105.9121996-2.259937.9121996-3.446918l-1.0019241.0299082c-.5682555.0598164-.8729451.0897245-.9121996.0897245l-.0448623.0149541v.5533014c0,.0598164.0056078.3495519.0149541.8673373.0093463.1196327.0149541.2392655.0149541.3588982,0,.457969-.1701028.6878882-.5084391.6878882-.2187036,0-.32899-.1701028-.32899-.5084391,0-.0299082.0093463-.1345868.0299082-.3140359.0392545-.5383473.0598164-1.0673483.0598164-1.5851337h-.1196327c-.2897355.0299082-.8131287.0841168-1.5701796.164495-.2187036.0392545-.3981527.0598164-.5383473.0598164-.4280609,0-.8019131-.3233822-1.1215568-.9720159l.0747705-.1495409c.4187146.2486118.9776237.3738523,1.6748582.3738523.5888173,0,1.1271646-.0093463,1.6150418-.0299082v-.1944032c-.0205619-.7477046-.0598164-1.2318433-.1196327-1.4505468-.0598164-.200011-.2598273-.3831986-.5981636-.5533014l.1196327-.1345868c.8972455-.0504701,1.3458682.1701028,1.3458682.65798l-.0299082.1944032c-.0205619.1701028-.0299082.65798-.0299082,1.4655009h.1046786c.4691846-.0504701.9421077-.0897245,1.4206387-.1196327l.4635768-.0448623Z"/>
        <path class="cls-6" d="m254.3416219,20.8648165c0-.6673263-.0205619-1.1421187-.0598164-1.4206387-.0392545-.2392655-.2243114-.4093682-.5533014-.5084391l.0149541-.164495c.9664081-.0803782,1.4505468.0897245,1.4505468.5084391,0,.0691627-.0149541.1738413-.0448623.3140359-.0691627.4093682-.1102864.8280828-.1196327,1.2561437.7570509-.0299082,1.351476-.0691627,1.7795369-.1196327.2299192-.0392545.457969-.1439331.6878882-.3140359.0691627-.0598164.1401946-.0897245.2093573-.0897245.0897245,0,.200011.0654241.32899.1944032.3682445.32899.5533014.6037714.5533014.822475,0,.0990709-.0504701.1850569-.1495409.2542196-.0803782.0598164-.2299192.2747814-.4486227.6430259-.8168672,1.5253173-1.7290668,2.7309909-2.7365987,3.6188901-1.1458572,1.0766946-2.5066795,1.8636536-4.0824669,2.3627464l-.1196327-.1495409c3.2300837-1.5757874,5.3442183-3.8637633,6.3405347-6.8639279l-5.0544828.2243114c.0299082.1495409.0504701.2691736.0598164.3588982.0691627.4093682.1944032.9477155.3738523,1.6150418.0205619.0691627.035516.1551487.0448623.2542196.0392545.200011.0149541.3682445-.0747705.5084391-.0990709.1495409-.2243114.2243114-.3738523.2243114-.2299192,0-.3682445-.1588872-.4187146-.4785309-.0205619-.0990709-.0299082-.1887954-.0299082-.2691736-.0504701-.529001-.1046786-.9813622-.164495-1.3608223-.0897245-.5084391-.1794491-.8430369-.2691736-1.0019241-.1102864-.2093573-.32899-.3794601-.65798-.5084391l.0299082-.1495409c.6486337-.0392545,1.0673483.0691627,1.2561437.32899.5888173-.0093463,1.26549-.035516,2.0337564-.0747705l.1944032-.0149541Zm3.1553132-1.9440319c.9664081.0897245,1.6299959.4336686,1.9888941,1.0318323.0990709.2486118.0243004.4037605-.2243114.4635768-.1701028.0392545-.3532904-.0747705-.5533014-.3439441-.3084281-.4280609-.7234042-.7570509-1.2411896-.98697l.0299082-.164495Zm.8972455-.7028423c.9664081-.0803782,1.680466.1439331,2.138435.6729341.1401946.2299192.0953323.3944142-.1345868.493485-.1588872.0691627-.3588982-.0149541-.5981636-.2542196-.3888064-.3588982-.857991-.6037714-1.4056846-.7327505v-.1794491Z"/>
        <path class="cls-6" d="m266.2544248,23.8705888c.128979.2187036.1775798.4317994.1420639.6355489s-.0523393.3663752-.0523393.486008c0,1.5757874.0243004,2.4431246.0747705,2.6020119.0093463.0897245.0149541.2037495.0149541.3439441,0,.3495519-.0654241.60751-.1944032.7776127-.0990709.128979-.2037495.1944032-.3140359.1944032-.2093573,0-.3140359-.164495-.3140359-.493485,0-.1196327.0056078-.2243114.0149541-.3140359.0803782-.5682555.1196327-1.8599151.1196327-3.8731096-1.2953982,1.1271646-2.6973442,1.8898233-4.2020996,2.287976l-.1944032-.0897245c1.9047774-.9065918,3.4693492-2.0487105,4.6955846-3.4244869.7477046-.857991,1.1215568-1.4150309,1.1215568-1.6748582,0-.1495409-.0897245-.3140359-.2691736-.493485l.0747705-.0747705c.786959.1588872,1.1813732.4037605,1.1813732.7327505,0,.1102864-.0841168.2747814-.2542196.493485-.5177854.6878882-1.0673483,1.31596-1.64495,1.8842155Z"/>
        <path class="cls-6" d="m281.2683324,20.4012396c-1.5552255,2.1627354-3.7179609,4.0525587-6.4900756,5.6676006-.1495409.0990709-.2747814.2093573-.3738523.32899-.1102864.1196327-.200011.1794491-.2691736.1794491-.1401946,0-.2897355-.1439331-.4486227-.4336686-.1401946-.2486118-.2093573-.457969-.2093573-.6280718,0-.0598164.0205619-.1401946.0598164-.2392655.1102864-.2392655.164495-1.0374401.164495-2.3926546,0-.98697-.035516-1.6150418-.1046786-1.8842155-.0691627-.2785199-.2635659-.5177854-.5832096-.7177964l.1345868-.1345868c.9664081.0392545,1.4505468.3345978,1.4505468.8822914,0,.0803782-.0149541.200011-.0448623.3588982-.0803782.4785309-.1495409,1.3813842-.2093573,2.7066905l-.0299082,1.1664191c2.2431137-1.0075319,4.4955737-2.6823901,6.7592492-5.0245746l.1944032.164495Z"/>
      </g>
      <g>
        <g>
          <polygon class="cls-1" points="0 40.1068632 57.9267899 15.0427987 57.9267899 0 62.4439722 0 62.4439722 68.8375482 57.9267899 68.8375482 57.9267899 19.9579251 8.0850089 41.527869 8.0850089 68.8375482 3.5728441 68.8375482 3.5728441 43.4793513 0 45.0237197 0 40.1068632"/>
          <polygon class="cls-3" points="65.9247701 21.1576394 65.9247701 16.2407829 102.8813008 32.2298231 102.8813008 25.766868 107.3960608 25.766868 107.3960608 34.1847658 123.9494888 41.3437767 123.9494888 46.2606332 119.9973869 44.5539729 119.9973869 64.322788 119.9973869 68.8375482 115.484357 68.8375482 66.0168163 68.8375482 66.0168163 64.322788 115.484357 64.322788 115.484357 42.6007603 65.9247701 21.1576394"/>
        </g>
        <rect class="cls-5" x="32.4554583" y="48.1140137" width="11.9170164" height="20.7235345"/>
        <g>
          <rect class="cls-4" x="81.911235" y="41.6512316" width="4.7131925" height="5.1583912"/>
          <rect class="cls-7" x="87.8030335" y="41.6512316" width="4.7149431" height="5.1583912"/>
          <rect class="cls-2" x="81.911235" y="47.8607137" width="4.7131925" height="5.1551038"/>
          <rect class="cls-8" x="87.8030335" y="47.8607137" width="4.7149431" height="5.1551038"/>
        </g>
      </g>
    </g>
  </g>
</svg>