<?xml version="1.0" encoding="UTF-8"?>
<svg id="_レイヤー_2" data-name="レイヤー 2" xmlns="http://www.w3.org/2000/svg" viewBox="0 0 18.2011102 83.5297392">
  <defs>
    <style>
      .cls-1 {
        fill: #2d0f09;
      }
    </style>
  </defs>
  <g id="_レイヤー_1-2" data-name="レイヤー 1">
    <g>
      <path class="cls-1" d="m.6140083,17.45538c2.236596-.5701506,4.2323461-1.4692342,5.9646524-2.6972509.9865761.4824351,1.4911631.8113682,1.4911631,1.0306569,0,.1535021-.1971368.2192887-.5700019.2192887-.175431,0-.3508619-.0219289-.4608779-.0219289-1.9514464.8990836-4.0129087,1.5350209-6.1617893,1.9078116l-.2631464-.4385774ZM2.6097585,2.4998911c-.2414406-.6140083-.7457302-1.1183723-1.4914605-1.5788786l.2194374-.3508619c1.6445909.504364,2.4560334,1.0525857,2.4560334,1.6885229,0,.4385774-.1974342.6578661-.6143057.6578661-.2408459,0-.43828-.1315732-.5697046-.4166485Zm3.7934714-.8990836l-2.8729049,3.4428325c-.175431.175431-.2408459.4166485-.2408459.6359372,0,.1315732.0220032.3070042.0874181.5262929.0440064.2192887.0660096.4385774.0660096.6578661,0,.2412176-.0660096.4385774-.2634438.5701506-.1534277.1096443-.3288587.175431-.5042897.175431-.3728651,0-.5482961-.1535021-.5482961-.4166485,0-.2192887.0440064-.4385774.0660096-.6140083.0660096-.175431.1094213-.4166485.1094213-.7017238,0-.175431-.0654149-.328933-.1971368-.4385774-.175431-.1535021-.504587-.2631464-.9868735-.3947196l.1314245-.3727908c.4608779.1096443.7457302.1535021.8554489.1535021.2631464,0,.504587-.0877155.680018-.2412176.4162768-.328933,1.0085793-.8771548,1.7543095-1.5788786.6577174-.6578661,1.2060135-1.1841589,1.5788786-1.6227363l.2848523.2192887Zm-1.5348722,12.6529576v.5701506h-1.0965921v-7.5216022c.3948683.1315732.8111452.2850753,1.2280167.4605063h8.7935509l.723727-.7017238c.723727.504364,1.0962948.8113682,1.0962948.9648702,0,.0657866-.0437091.1535021-.1537251.2192887l-.4162768.3070042v6.0523679h-1.0965921v-.3508619H4.8683577Zm0-4.5173471h9.0784032v-1.4911631H4.8683577v1.4911631Zm0,.4824351v1.4253765h9.0784032v-1.4253765H4.8683577Zm0,1.9297405v1.6008075h9.0784032v-1.6008075H4.8683577ZM11.7321681,2.346389v.3947196c.2188427.7675104.7451355,1.4253765,1.512869,1.9735982,1.1620071.8113682,2.6974739,1.3595899,4.6706262,1.7104518-.3942736.4166485-.6797206.7894393-.8111452,1.1183723-3.0917476-.8990836-4.9340699-2.2367447-5.5043692-3.9471965-.5479987,1.9297405-2.5654547,3.2454727-6.0740738,3.9033387l-.2848523-.4605063c1.9731522-.4824351,3.4646127-1.2718744,4.473192-2.3683179.6143057-.6578661.9211612-1.3815188.9211612-2.0832426v-.2412176h-2.3026056c-.5923025.7017238-1.2500199,1.3157322-2.017456,1.8639539l-.2851496-.3070042c1.0965921-1.0964435,1.8857341-2.3902468,2.3903211-3.9033387,1.0742916.175431,1.6225877.3947196,1.6225877.6359372,0,.1315732-.2848523.2850753-.8111452.3947196-.1314245.2412176-.3068555.5262929-.5262929.833297h6.7320885l.7674361-.8990836c.8114425.7455816,1.2060135,1.2499455,1.2060135,1.4473054,0,.0877155-.0654149.175431-.2408459.2192887l-.5702993.1315732c-.4822865.504364-1.1623044.9867991-1.9517437,1.4692342l-.3288587-.3070042c.5042897-.5701506.899158-1.0745146,1.118298-1.5788786h-3.7057559Zm4.6266197,15.1089909c-1.1620071-.7675104-3.0477412-1.5350209-5.7232119-2.2586735l.2411432-.4166485c4.539499.7017238,6.8201014,1.513092,6.8201014,2.4341045,0,.4166485-.175431.6140083-.5482961.6140083-.1534277,0-.4168715-.1315732-.7897366-.3727908Z"/>
      <path class="cls-1" d="m3.7717655,32.7774898c-.8111452,1.7104518-1.9737469,3.3331881-3.3771945,4.868209l-.394571-.3727908c1.7326037-2.2148158,2.9823262-4.5612048,3.7277591-6.9953093H.4605806l-.1974342-.504364h3.5086191v-7.6970331c1.2720231,0,1.9077373.1535021,1.9077373.4166485,0,.175431-.2628491.3508619-.789142.5482217v6.7321629h1.6222903l.8554489-1.3157322c.3725678.3947196.7674361.8771548,1.1623044,1.4473054l-.2194374.3727908h-3.4206063v1.5788786c2.236596.8113682,3.354894,1.6885229,3.354894,2.6972509,0,.4605063-.1971368.7017238-.6140083.7017238-.2414406,0-.4602832-.1973598-.6357142-.5701506-.4168715-.833297-1.1185953-1.6008075-2.1051715-2.3025313v7.3681001h-1.1185953v-6.9733804ZM.7894393,23.7208668c1.4034476,1.4034476,2.1051715,2.7630375,2.1051715,4.1006986,0,.6359372-.2194374.9429414-.6797206.9429414-.3068555,0-.4822865-.2192887-.5042897-.6359372-.0880128-1.5350209-.5042897-2.8946107-1.2940263-4.1006986l.3728651-.3070042Zm4.7146326,4.9120667c.7017238-1.6665941,1.2280167-3.355117,1.5788786-5.0217111,1.0745889.328933,1.622885.6140083,1.622885.8552259,0,.1535021-.2194374.2631464-.6797206.328933-.5702993,1.337661-1.2940263,2.6972509-2.1271747,4.0568408l-.3948683-.2192887Zm8.7495445,5.3506441v-11.6880873c1.2940263.0657866,1.9517437.2192887,1.9517437.504364,0,.1315732-.2628491.3070042-.7457302.4824351v10.4162129l.8117398-.2192887.5917078-1.5788786.2194374.2192887c.3728651.3508619.7017238.7017238,1.0085793,1.0525857l-.1094213.4385774-2.4560334.6140083v5.5260751h-1.2060135v-5.2409998l-5.8552311,1.4911631-.3288587-.4385774,6.1180802-1.5788786Zm-5.4383596-5.5918617c1.2280167.5482217,2.1051715,1.1403012,2.7194771,1.7981673.4602832.504364.6797206.9429414.6797206,1.337661,0,.4605063-.2194374.7017238-.6577174.7017238-.285447,0-.4828811-.175431-.6143057-.504364-.3508619-1.0306569-1.118298-2.017456-2.3463147-2.9603974l.21914-.3727908Zm.899158-4.3199873c1.1623044.4385774,1.9737469.9210125,2.5440462,1.4692342.5042897.504364.7671387.9429414.7671387,1.3815188,0,.4605063-.175431.7017238-.5700019.7017238-.3508619,0-.5920051-.2412176-.7894393-.7017238-.3288587-.8771548-1.0525857-1.7104518-2.1711811-2.4998911l.2194374-.3508619Z"/>
      <path class="cls-1" d="m5.9646524,47.9673574l.942867-1.1841589c.4822865.4604319.899158.8990093,1.2280167,1.3157322l-.1974342.3727164H.4385774l-.175431-.5042897h5.701506Zm-.942867,2.4780366l.9211612-1.1403012c.4162768.4165742.789142.8331484,1.1620071,1.2717257l-.2194374.3508619H1.4034476l-.1971368-.4822865h3.8154746Zm.0220032,2.4560334l.899158-1.1184467c.3942736.3508619.789142.7675848,1.1620071,1.2498712l-.2414406.3728651H1.4034476l-.1971368-.5042897h3.8374778Zm.175431,2.5217456l.723727-.899158c.7671387.6360115,1.1400039,1.0307312,1.1400039,1.2061621,0,.0877155-.0657123.175431-.175431.2631464l-.4822865.285001v5.0874977h-1.0745889v-.9648702h-2.9383198v1.2720231h-1.0965921v-6.8858136c.4385774.175431.8551516.4167229,1.2720231.6360115h2.6314643Zm-.285447-9.9338521l.8771548-1.1402269c.504587.4605063.899158.8770804,1.1626017,1.2719488l-.2194374.3508619H1.6885973l-.1534277-.4825838h3.3986031Zm-2.5214483,10.4381418v3.9912029h2.9383198v-3.9912029h-2.9383198Zm10.7887064-9.0784032v1.5130176h2.0177533l.8111452-.9648702c.2634438.2192887.6360115.5701506,1.1185953,1.1184467l-.175431.3508619h-3.7720629v1.7323063h2.9169113l.8988606-1.0745889c.4605806.3948683.8554489.7894393,1.1843076,1.1623044l-.1974342.3947196H7.8726871l-.2194374-.4824351h4.4297803v-1.7323063h-3.2897764l-.1971368-.5044383h3.4869132v-1.5130176h-3.7720629l-.1974342-.5044383h3.969497v-2.3683179c1.2934316.0219289,1.9514464.1973598,1.9514464.5262929,0,.175431-.2851496.3508619-.8334457.5262929v1.3157322h2.6094611l.8771548-1.0525857.2194374.1972855c.2414406.2631464.5482961.5702993.9211612.9648702l-.175431.3948683h-4.4517835Zm2.0397565,5.7452151l.7017238-.8331484c.8111452.5700019,1.2280167.9648702,1.2280167,1.1403012,0,.0877155-.0660096.175431-.175431.2411432l-.4608779.3070042v6.4909453c0,1.0525857-.6357142,1.5788786-1.8857341,1.5788786,0-.3947196-.1974342-.6358629-.6140083-.7894393-.329156-.1315732-.8988606-.2631464-1.6665941-.3727164v-.5482961c.899158.1097187,1.6882999.1534277,2.3246088.1534277.5042897,0,.723727-.1972855.723727-.6140083v-1.8200218h-5.4603628v4.1446306h-1.0965921v-9.7145634c.4385774.1535764.8771548.3727164,1.337438.6358629h5.0440859Zm.175431,2.1271747v-1.6445909h-5.4603628v1.6445909h5.4603628Zm0,.5042897h-5.4603628v1.798316h5.4603628v-1.798316Z"/>
      <path class="cls-1" d="m9.8024276,70.2408444h5.6137905l1.0085793-1.3377354c.5702993.5262929,1.0085793.9868735,1.3594412,1.447454l-.1974342.394571h-7.7626711c.504587,2.0614624,1.2497225,3.7937687,2.2588965,5.1752132,1.1840103-1.2717257,2.1925896-2.5656034,3.0917476-3.9251933.9648702.6360115,1.447454,1.118298,1.447454,1.3814444,0,.1535764-.1534277.2194374-.4388747.2194374-.1314245,0-.2848523,0-.5042897-.0440064-.942867.9868735-2.0391618,1.907886-3.2451753,2.8068953,1.2934316,1.5351695,3.179463,2.7850407,5.6354964,3.8157719-.394571.3288587-.7234297.7235784-1.0088767,1.1840103-2.3460173-1.2060135-4.1003269-2.6314643-5.2629286-4.2980584-.9208638-1.293729-1.5568754-2.8068953-1.9951554-4.5392016v9.2321283c0,1.1840103-.723727,1.7761641-2.1711811,1.7761641-.0440064-.4604319-.2848523-.7675848-.7457302-.9430157-.3288587-.1314245-1.0085793-.2631464-1.9734496-.4165742v-.5262929c1.1623044.1097187,2.1708837.1974342,3.0040321.1974342.4388747,0,.680018-.2194374.680018-.6798693v-10.4162873H.8554489l-.1537251-.5042897h7.8943929v-4.3637707c1.3597386.0218545,2.0394592.1972855,2.0394592.5042897,0,.1534277-.2851496.3508619-.8331484.5482961v3.3111849Zm-1.7763127,6.3155144c-1.9737469,1.5788786-3.859481,2.8946107-5.6357937,3.9251933,0,.5921538-.0880128.8771548-.2634438.8771548-.3068555,0-.6797206-.5481474-1.1620071-1.6665941,2.3026056-.942867,4.583208-2.1488805,6.8858136-3.6400436l.175431.5042897Zm-5.2192196-4.6050626c1.1843076.5262929,2.1051715,1.1621557,2.7191798,1.842025.4385774.5262929.6797206.9867248.6797206,1.4034476,0,.5262929-.2628491.7675848-.723727.7675848-.3508619,0-.5482961-.175431-.6577174-.5262929-.3508619-1.2061621-1.1185953-2.2587479-2.2585992-3.1359026l.2411432-.3508619Zm8.9686845-5.5479296c.9211612.3288587,1.6668914.7454329,2.1491779,1.2280167.5042897.4604319.7457302.9208638.7457302,1.3375867,0,.4824351-.2414406.7235784-.7017238.7235784-.3508619,0-.5923025-.2411432-.723727-.7017238-.175431-.7454329-.7457302-1.4911631-1.6882999-2.236596l.2188427-.3508619Z"/>
    </g>
  </g>
</svg>