<?xml version="1.0" encoding="UTF-8"?>
<svg id="_レイヤー_2" data-name="レイヤー 2" xmlns="http://www.w3.org/2000/svg" xmlns:xlink="http://www.w3.org/1999/xlink" viewBox="0 0 17.7092276 82.9595886">
  <defs>
    <style>
      .cls-1 {
        fill: url(#_新規グラデーションスウォッチ_2-4);
      }

      .cls-2 {
        fill: url(#_新規グラデーションスウォッチ_2);
      }

      .cls-3 {
        fill: url(#_新規グラデーションスウォッチ_2-3);
      }

      .cls-4 {
        fill: url(#_新規グラデーションスウォッチ_2-2);
      }
    </style>
    <linearGradient id="_新規グラデーションスウォッチ_2" data-name="新規グラデーションスウォッチ 2" x1=".3069916" y1="8.5916055" x2="17.5998637" y2="8.5916055" gradientUnits="userSpaceOnUse">
      <stop offset="0" stop-color="#f7b971"/>
      <stop offset=".234517" stop-color="#fde7b0"/>
      <stop offset=".350253" stop-color="#fdedd8"/>
      <stop offset=".455837" stop-color="#fde7b0"/>
      <stop offset=".596954" stop-color="#f7b971"/>
      <stop offset=".734009" stop-color="#fde7b0"/>
      <stop offset=".980883" stop-color="#f7b971"/>
    </linearGradient>
    <linearGradient id="_新規グラデーションスウォッチ_2-2" data-name="新規グラデーションスウォッチ 2" x1=".3726694" y1="30.1079159" x2="17.7092276" y2="30.1079159" xlink:href="#_新規グラデーションスウォッチ_2"/>
    <linearGradient id="_新規グラデーションスウォッチ_2-3" data-name="新規グラデーションスウォッチ 2" x1=".5919916" y1="52.6215033" x2="17.4025332" y2="52.6215033" xlink:href="#_新規グラデーションスウォッチ_2"/>
    <linearGradient id="_新規グラデーションスウォッチ_2-4" data-name="新規グラデーションスウォッチ 2" x1="0" y1="74.0063095" x2="17.6655415" y2="74.0063095" xlink:href="#_新規グラデーションスウォッチ_2"/>
  </defs>
  <g id="_レイヤー_1-2" data-name="レイヤー 1">
    <g>
      <path class="cls-2" d="m13.019061.9424465l.789025-.9424465c.8330083.6575208,1.2710583,1.095868,1.2710583,1.2931243,0,.0876694-.0653806.1534215-.1753389.2191736l-.5480083.3287604v9.6436388h-1.1394056v-1.1616201h-2.1920333v4.6026458c0,.3287604.1099583.5260167.3946611.6136861.285.0876694,1.00805.1534215,2.14805.1534215,1.1833889,0,1.8847444-.1972562,2.1040666-.5698514.2193222-.3506778.3946611-1.2931243.504025-2.8273396l.5480083.2191736c0,1.3150417.0439833,2.1479014.1313556,2.4547444.1096611.3506778.3506778.5260167.7453389.5040993-.0219917.5917687-.285.9424465-.8327111,1.0739507-.5043222.1315042-1.5563555.1972562-3.112711.1972562-1.8187695,0-2.9367778-.1095868-3.3094472-.3506778-.3066945-.1972562-.4820333-.6356035-.4820333-1.2931243v-4.7779847h-2.0380917c-.1753389,2.2136535-.9426694,3.8355382-2.2360166,4.9314062-1.1174139.9424465-2.7834305,1.5999673-5.0188528,1.9287278l-.2630083-.5040993c3.9231333-.789025,6.0272-2.9369264,6.3338944-6.3560347h-2.082075v1.2712069h-1.1394056V.3068431c.3506778.1315042.8107195.3506778,1.3807194.6356035h8.2189361Zm-8.4602499.5040993v2.3451576h8.6575805V1.4465458H4.5588111Zm8.6575805,2.8273396H4.5588111v2.4547444h8.6575805v-2.4547444Zm0,2.9588437H4.5588111v2.5862486h8.6575805v-2.5862486Z"/>
      <path class="cls-4" d="m11.2436805,25.4614353c.7233472-1.1835375,1.3807194-2.5643312,1.9727111-4.1862159,1.2713555.4164299,1.9067361.7671076,1.9067361,1.0739507,0,.1753389-.3286861.2849257-.9426694.3287604-.7013555,1.030116-1.4461,1.9287278-2.2354222,2.7835048h3.6164389l.7450417-.9205292c.9206778.8547771,1.4027111,1.4027111,1.4027111,1.6218847,0,.0657521-.0873723.1534215-.2847028.2191736l-.6139833.1972562c-.5477111.6575208-1.1613972,1.2712069-1.8407611,1.819141l-.3726694-.2849257c.5260167-.9424465.8547028-1.6438021,1.00805-2.1479014H2.5863972v.2849257c0,1.0081986-.1536444,1.819141-.5477111,2.4328271-.2852972.4602646-.6139833.6794382-.9426694.6794382-.504025,0-.7233472-.241091-.7233472-.7013555,0-.241091.0879666-.4164299.285-.5917687.8110167-.7451903,1.2490667-1.8629757,1.3370333-3.2876041l.4600417.0219174c.065975.4164299.1099583.6136861.1099583.6575208h8.6789777Zm-.8327111,5.6765965c0,.1534215-.285.3068431-.8327111.4602646v1.1616201h5.6108444l1.0520333-1.3807937c.4820333.4602646.9200834.9424465,1.3147445,1.5122979l-.2410167.3725951h-7.6712249v4.1642986c0,.9862812-.7013555,1.5122979-2.1260583,1.5342153v-.0219174c0-.3506778-.1533472-.5698514-.4820333-.7451903-.3946611-.1753389-1.2493639-.3725951-2.5421167-.5698514v-.5260167c1.4680917.1534215,2.5861.2191736,3.3094472.2191736.4600417,0,.6793639-.1972562.6793639-.5917687v-3.462943H.7233472l-.2410167-.5040993h7.9339361v-2.3232403c.1533472.0219174.4823305.0876694,1.0520333.1972562l.1099583-.0657521c.8983889-.5698514,1.6874139-1.1616201,2.3887695-1.819141H3.7480916l-.2193222-.5040993h8.5042332l.8107195-.8109424c.9643639.7451903,1.4247028,1.2273722,1.4247028,1.4027111,0,.1095868-.0879666.1753389-.3066945.2191736l-.5480083.0876694c-.8986861.5917687-1.9947027,1.1616201-3.3314389,1.7095542.219025.0876694.3286861.1972562.3286861.2849257Zm-7.5395722-9.5778867c2.0161.7013555,3.0247444,1.5342153,3.0247444,2.4547444,0,.5260167-.2413139.7671076-.7013555.7671076-.2852972,0-.5043222-.2191736-.6796611-.6356035-.3506778-.8109424-.9643639-1.5342153-1.9070333-2.1917361l.2633055-.3945125Zm4.2081333-.3068431c1.7973722.8328597,2.6740666,1.7533889,2.6740666,2.6958354,0,.4821819-.2413139.7451903-.7013555.7451903-.3506778,0-.57-.241091-.6796611-.7013555-.1970334-.789025-.72305-1.57805-1.5997445-2.3889923l.3066945-.3506778Z"/>
      <path class="cls-3" d="m9.6656305,51.733813v7.5834069c0,1.095868-.6353806,1.6438764-1.9067361,1.6438764-.0876694,0-.1753389-.0219917-.2630083-.0219917,0-.3945125-.285-.6575208-.8110167-.8328597-.3946611-.1534958-1.2053806-.3068431-2.3887695-.4821819v-.5698514c1.3807194.1534958,2.4984306.2191736,3.3968195.2191736.5043222,0,.7673305-.2191736.7673305-.6356778v-6.9038944H.7893222l-.1973305-.4821819h14.5091443l.8766944-1.0301903c.9646611.8330083,1.4247028,1.359025,1.4247028,1.57805,0,.0876694-.065975.1753389-.2413139.2193222l-.6793639.1533472c-1.0957195,1.1616944-2.4767361,2.2794055-4.1201667,3.4191083l-.3726694-.3945125c1.2493639-1.1178597,2.3013972-2.2794055,3.1121167-3.462943h-5.4355055Zm-.5916944-3.2437694c1.5563555-1.0081986,2.8271167-1.9067361,3.7697861-2.7615875H2.7617361l-.2630083-.5041736h10.4109693l.8327111-.9423722c1.00805.8328597,1.4900834,1.3588764,1.4900834,1.6218847,0,.0876694-.0653806.1534958-.2407195.197182l-.7453389.1534958c-1.1833889.8328597-2.8054222,1.7533889-4.9094888,2.7615875.8327111.5480083,1.2493639,1.0520333,1.2493639,1.4903805,0,.4603389-.1973305.6793639-.5919916.6793639-.219025,0-.5260167-.197182-.8547028-.5916944-.8547028-1.0300417-2.2354222-1.9944055-4.2081333-2.8930916l.2633055-.4383472c1.6214389.4821819,2.8271167.9863555,3.59415,1.4247028l.285-.1973305Z"/>
      <path class="cls-1" d="m0,81.4033817c.57-1.5342153.9206778-3.3532819,1.0520333-5.4793402,1.2053806.2410167,1.8193638.504025,1.8193638.7670333,0,.1096611-.2193222.2193222-.6793639.3288347-.4166527,1.8629014-1.0083472,3.3752736-1.7973722,4.5806541l-.3946611-.197182Zm2.2574139-7.912093l.1319499-.1534958c1.3807194-1.57805,2.4981334-3.5944472,3.7038111-5.8520097,1.0083472.4603389,1.4903805.8110167,1.4903805,1.074025,0,.1753389-.2847028.2630083-.8327111.2630083-1.3153388,1.7972236-2.6080917,3.3534305-3.8354639,4.6244889,1.2053806-.0656778,2.3887695-.1533472,3.5067777-.2848514-.1973305-.4821819-.5260167-.9862069-1.0303389-1.5562069l.285-.2848514c1.6220333,1.0520333,2.4327528,2.1040666,2.4327528,3.177943,0,.5260167-.2193222.8110167-.6573722.8110167-.3069916,0-.504025-.2630083-.57-.7670333-.0219917-.2630083-.1093639-.57-.2413139-.8986861-.9640667.1973305-1.5997445.3286861-1.9067361.3945125v8.9204402h-1.1613972v-8.7232582l-.2193222.0439833c-.504025.0876694-1.2493639.1753389-2.2134306.3066945-.1533472.3946611-.2852972.591843-.3946611.591843-.2193222,0-.4600417-.5478597-.7013555-1.6218847.8547028,0,1.5340667,0,2.0163972-.0438347l.1970334-.0218431Zm1.534661-8.4382583c1.1174139.3945125,1.6874139.7013555,1.6874139.9643639,0,.1753389-.2630083.2630083-.7453389.3068431-.7233472,1.0520333-1.4247028,1.9505708-2.1040666,2.673918.6793639.5480083,1.0083472,1.074025,1.0083472,1.6000416,0,.4820333-.219025.7450417-.6796611.7450417-.2627111,0-.4820333-.2410167-.6133889-.7013555-.2633055-.8547028-.9426694-1.6657194-2.0166944-2.4547444l.2633055-.3506778c.5916944.2411653,1.1394056.5480083,1.6437278.8548514.6136861-1.095868,1.1177111-2.3232403,1.5563555-3.6382819Zm2.2574139,10.4764985c1.2710583,1.2492153,1.9287278,2.4765875,1.9287278,3.6382819,0,.6136861-.2193222.8986861-.6793639.8986861-.3506778,0-.5260167-.2411653-.5480083-.7671819-.0219917-1.0301903-.3726694-2.1917361-1.0520333-3.5286208l.3506778-.2411653Zm9.6656305-6.4656958l.7887278-1.0300417c.7673305.7013555,1.1616944,1.1177111,1.1616944,1.2493639,0,.0876694-.0656778.197182-.1970334.3066945l-.4166527.3506778c-.0219917,5.8520097-.3286861,9.6217957-.9643639,11.2656721-.4163556,1.0738764-1.2273722,1.5998931-2.4110583,1.5998931-.0219917-.4165042-.2627111-.7231986-.7450417-.8985375-.3506778-.1316528-1.0737278-.3069916-2.1697444-.5260167v-.5260167c1.1613972.1753389,2.14805.2630083,2.9367778.2630083.7013555,0,1.1616944-.3069916,1.3587278-.9206778.5480083-1.6217361.8333055-5.1724972.855-10.6298458h-5.4572c-.5480083,1.3150417-1.3153388,2.5642569-2.3013972,3.7697861l-.3946611-.3068431c1.3367361-2.082075,2.2134306-4.73415,2.6300833-7.9559277,1.2713555.197182,1.9287278.4383472,1.9287278.7013555,0,.1533472-.2630083.3066945-.789025.4601903-.3289833,1.2273722-.6356778,2.169893-.8766944,2.8272653h5.0631333Zm-5.5674555,3.3095958c1.0303389.6136861,1.8193638,1.3150417,2.3453805,2.0382403.5260167.7233472.789025,1.3150417.789025,1.8850416,0,.5697028-.219025.8327111-.6576694.8327111-.3726694,0-.5697028-.2410167-.6793639-.789025-.2410167-1.2273722-.9423722-2.4327528-2.082075-3.6162903l.2847028-.3506778Z"/>
    </g>
  </g>
</svg>